<svg width="60" height="60" viewBox="0 0 60 60" fill="none" xmlns="http://www.w3.org/2000/svg">
<g clip-path="url(#clip0_996_22058)">
<path d="M54.1919 51.5974H46.8461V49.1286H54.1894C55.5467 49.1286 56.6581 48.0172 56.6581 46.6599L56.6605 5.18302C56.6605 3.8257 55.5491 2.71427 54.1918 2.71427H5.30869C3.95137 2.71427 2.83994 3.8257 2.83994 5.18302V46.7203C2.83994 48.0777 3.95137 49.1891 5.30869 49.1891H12.652V51.6578H5.30869C2.59406 51.6578 0.433899 49.4977 0.433899 46.7831V5.18339C0.433899 2.46875 2.59406 0.308594 5.30869 0.308594H54.1893C56.904 0.308594 59.0641 2.46875 59.0641 5.18339V46.7207C59.0665 49.4378 56.9065 51.5974 54.1919 51.5974ZM51.7231 30.8586H7.7775C7.09761 30.8586 6.54313 30.3041 6.54313 29.6243V7.65115C6.54313 6.97126 7.09763 6.41677 7.7775 6.41677H51.7206C52.4005 6.41677 52.955 6.97128 52.955 7.65115L52.9574 29.6243C52.9574 30.3041 52.4006 30.8586 51.7231 30.8586ZM9.01188 28.3899H50.5492V8.88552H9.01188V28.3899ZM13.8891 23.5151H16.3578V25.9838H13.8891V23.5151ZM13.8891 17.4035H16.3578V19.8723H13.8891V17.4035ZM13.8891 11.2943H16.3578V13.7631H13.8891V11.2943ZM21.1725 23.5153H38.268V25.984H21.1725V23.5153ZM21.1725 17.4037H38.268V19.8724H21.1725V17.4037ZM21.1725 11.2945H38.268V13.7633H21.1725V11.2945ZM43.2055 23.5155H45.6742V25.9842H43.2055V23.5155ZM43.2055 17.4039H45.6742V19.8726H43.2055V17.4039ZM43.2055 11.2947H45.6742V13.7635H43.2055V11.2947ZM18.7636 38.2029H21.2324V46.7805H18.7636V38.2029ZM23.6408 38.2029H26.1096V54.064H23.6408V38.2029ZM39.5019 39.8712C37.7131 37.834 34.6271 37.6483 32.59 39.4396C30.6155 41.1682 30.4299 44.1312 32.0355 46.1657C31.3556 47.0288 30.9241 48.0173 30.9241 49.189C30.9241 51.9036 33.0843 54.0638 35.7989 54.0638C38.5135 54.0638 40.6737 51.9036 40.6737 49.189C40.6737 48.0173 40.2421 46.9661 39.5623 46.1657C41.1052 44.3142 41.1052 41.6599 39.5019 39.8712ZM35.8591 40.6113C37.2164 40.6113 38.3279 41.7227 38.3279 43.0801C38.3279 43.6346 38.1422 44.2517 37.7733 44.6857C37.2188 44.4398 36.539 44.3145 35.9218 44.3145C35.2419 44.3145 34.6247 44.4374 34.0702 44.6857C33.6989 44.2542 33.453 43.6972 33.453 43.0801C33.3903 41.7227 34.5018 40.6113 35.8591 40.6113ZM35.8591 51.5979C34.5018 51.5979 33.3904 50.4864 33.3904 49.1291C33.3904 47.7718 34.5018 46.6604 35.8591 46.6604C37.2164 46.6604 38.3279 47.7718 38.3279 49.1291C38.3279 50.5467 37.2188 51.5979 35.8591 51.5979ZM49.3144 34.4999H10.186V36.9687H13.8264V55.2985C13.8264 57.3357 15.4923 58.9389 17.4668 58.9389H41.9087C43.9459 58.9389 45.5491 57.273 45.5491 55.2985L45.5515 36.9687H49.1919V34.4999H49.3144ZM43.2052 55.301C43.2052 55.9809 42.6507 56.5354 41.9709 56.5354H17.529C16.8491 56.5354 16.2946 55.9809 16.2946 55.301V36.9687H43.1423V55.301H43.2052Z" fill="#1A1A1A"/>
</g>
<defs>
<clipPath id="clip0_996_22058">
<rect width="59.25" height="59.25" fill="white" transform="translate(0.125)"/>
</clipPath>
</defs>
</svg>
