<svg width="20" height="21" viewBox="0 0 20 21" fill="none" xmlns="http://www.w3.org/2000/svg">
<path d="M8.95245 4.44093C9.29113 4.39085 9.64051 4.36399 10.0003 4.36399C14.2545 4.36399 17.0461 8.11803 17.9839 9.60301C18.0974 9.78274 18.1542 9.87261 18.1859 10.0112C18.2098 10.1153 18.2098 10.2795 18.1859 10.3836C18.1541 10.5222 18.097 10.6127 17.9827 10.7936C17.7328 11.1891 17.3518 11.7449 16.8471 12.3477M5.6036 5.79319C3.80187 7.01541 2.57871 8.71347 2.01759 9.60173C1.90357 9.78222 1.84656 9.87246 1.81478 10.0111C1.79091 10.1152 1.7909 10.2794 1.81476 10.3835C1.84652 10.5221 1.90328 10.6119 2.01678 10.7916C2.95462 12.2766 5.74618 16.0307 10.0003 16.0307C11.7157 16.0307 13.1932 15.4203 14.4073 14.5945M2.50035 2.69733L17.5003 17.6973M8.23258 8.42956C7.78017 8.88197 7.50035 9.50697 7.50035 10.1973C7.50035 11.578 8.61963 12.6973 10.0003 12.6973C10.6907 12.6973 11.3157 12.4175 11.7681 11.9651" stroke="white" stroke-width="2" stroke-linecap="round" stroke-linejoin="round"/>
</svg>
