<svg width="25" height="24" viewBox="0 0 25 24" fill="none" xmlns="http://www.w3.org/2000/svg">
<path d="M8.82597 14C9.27001 15.7252 10.8361 17 12.7 17C14.5638 17 16.1299 15.7252 16.5739 14M11.7176 2.764L4.93534 8.03912C4.48197 8.39175 4.25529 8.56806 4.09198 8.78886C3.94732 8.98444 3.83955 9.20478 3.77398 9.43905C3.69995 9.70352 3.69995 9.9907 3.69995 10.5651V17.8C3.69995 18.9201 3.69995 19.4801 3.91794 19.908C4.10968 20.2843 4.41565 20.5903 4.79197 20.782C5.21979 21 5.77985 21 6.89995 21H18.5C19.6201 21 20.1801 21 20.6079 20.782C20.9843 20.5903 21.2902 20.2843 21.482 19.908C21.7 19.4801 21.7 18.9201 21.7 17.8V10.5651C21.7 9.9907 21.7 9.70352 21.6259 9.43905C21.5603 9.20478 21.4526 8.98444 21.3079 8.78886C21.1446 8.56806 20.9179 8.39175 20.4646 8.03913L13.6823 2.764C13.3309 2.49075 13.1553 2.35412 12.9613 2.3016C12.7901 2.25526 12.6098 2.25526 12.4386 2.3016C12.2446 2.35412 12.069 2.49075 11.7176 2.764Z" stroke="#939393" stroke-width="2" stroke-linecap="round" stroke-linejoin="round"/>
</svg>
