<svg width="42" height="17" viewBox="0 0 42 17" fill="none" xmlns="http://www.w3.org/2000/svg">
<path fill-rule="evenodd" clip-rule="evenodd" d="M32.8156 0H30.0237V16.1862H32.8156V0ZM13.4276 8.39776C13.4497 9.83801 13.7821 11.1121 14.4247 12.22C15.0894 13.3722 15.9979 14.2474 17.1501 14.8678C18.2912 15.4882 19.5764 15.7984 20.9834 15.7984C22.4015 15.7984 23.6755 15.4772 24.8277 14.8235C25.1601 14.6352 25.4814 14.4247 25.7805 14.1809C25.7805 15.2888 26.6779 16.1862 27.7858 16.1862H28.5724V7.7995H28.5613C28.517 6.30385 28.1736 5.00762 27.5088 3.91081C26.7998 2.74753 25.8802 1.86122 24.728 1.27404C23.5869 0.686863 22.3572 0.387733 21.0609 0.387733C19.6096 0.387733 18.3023 0.720099 17.139 1.38483C16.8066 1.57317 16.4964 1.79475 16.2084 2.02741C16.2084 0.90844 15.311 0.0110514 14.192 0.0110514H13.4165L13.4276 8.39776ZM16.8842 5.16273C17.3274 4.37613 17.9145 3.80003 18.6236 3.4455C19.3437 3.0799 20.0971 2.90264 20.8947 2.90264C21.8032 2.90264 22.6341 3.12421 23.3764 3.55629C24.1187 3.98837 24.7059 4.61986 25.138 5.42862C25.57 6.23738 25.7805 7.17908 25.7805 8.25373C25.7805 9.40593 25.559 10.3476 25.1158 11.1121C24.6726 11.8654 24.0965 12.4194 23.3875 12.7739C22.6784 13.1284 21.914 13.3057 21.1052 13.3057C20.3076 13.3057 19.532 13.1284 18.7898 12.7628C18.0475 12.3972 17.4271 11.8211 16.9507 11.0456C16.4632 10.259 16.2305 9.27299 16.2305 8.09863C16.2084 6.92427 16.441 5.94933 16.8842 5.16273ZM9.18179 16.1997H11.9737V0.0134602H9.18179V16.1997ZM7.72197 16.1973C3.45661 16.1973 0 12.7407 0 8.47531C1.32946 8.47531 2.54814 9.25083 3.06885 10.4695C3.84437 12.2754 5.63914 13.5384 7.72197 13.5384V16.1973ZM34.278 0C38.5323 0 41.9889 3.45661 42 7.72197C40.6705 7.72197 39.4519 6.94645 38.9312 5.72778C38.1556 3.92192 36.3609 2.65893 34.278 2.65893V0Z" fill="white"/>
</svg>
