<svg width="24" height="25" viewBox="0 0 24 25" fill="none" xmlns="http://www.w3.org/2000/svg">
<path d="M9.99999 13.25C10.4294 13.8241 10.9773 14.2991 11.6065 14.6429C12.2357 14.9867 12.9315 15.1911 13.6466 15.2423C14.3618 15.2935 15.0796 15.1903 15.7513 14.9397C16.4231 14.6892 17.0331 14.297 17.54 13.79L20.54 10.79C21.4508 9.84695 21.9547 8.58394 21.9434 7.27296C21.932 5.96198 21.4061 4.70791 20.4791 3.78087C19.552 2.85383 18.298 2.32799 16.987 2.3166C15.676 2.3052 14.413 2.80918 13.47 3.71997L11.75 5.42997M14 11.25C13.5705 10.6758 13.0226 10.2008 12.3934 9.85703C11.7642 9.51327 11.0685 9.30885 10.3533 9.25763C9.63819 9.20641 8.9204 9.3096 8.24864 9.56018C7.57688 9.81077 6.96687 10.2029 6.45999 10.71L3.45999 13.71C2.5492 14.653 2.04522 15.916 2.05662 17.227C2.06801 18.538 2.59385 19.792 3.52089 20.7191C4.44793 21.6461 5.702 22.1719 7.01298 22.1833C8.32396 22.1947 9.58697 21.6908 10.53 20.78L12.24 19.07" stroke="#1A1A1A" stroke-width="2" stroke-linecap="round" stroke-linejoin="round"/>
</svg>
