<svg width="25" height="24" viewBox="0 0 25 24" fill="none" xmlns="http://www.w3.org/2000/svg">
<path d="M8.70005 3H4.90005C4.34 3 4.05997 3 3.84606 3.10899C3.6579 3.20487 3.50492 3.35785 3.40904 3.54601C3.30005 3.75992 3.30005 4.03995 3.30005 4.6V8.4C3.30005 8.96005 3.30005 9.24008 3.40904 9.45399C3.50492 9.64215 3.6579 9.79513 3.84606 9.89101C4.05997 10 4.34 10 4.90005 10H8.70005C9.2601 10 9.54013 10 9.75404 9.89101C9.9422 9.79513 10.0952 9.64215 10.1911 9.45399C10.3 9.24008 10.3 8.96005 10.3 8.4V4.6C10.3 4.03995 10.3 3.75992 10.1911 3.54601C10.0952 3.35785 9.9422 3.20487 9.75404 3.10899C9.54013 3 9.2601 3 8.70005 3Z" stroke="#939393" stroke-width="2" stroke-linecap="round" stroke-linejoin="round"/>
<path d="M19.7 3H15.9C15.34 3 15.06 3 14.8461 3.10899C14.6579 3.20487 14.5049 3.35785 14.409 3.54601C14.3 3.75992 14.3 4.03995 14.3 4.6V8.4C14.3 8.96005 14.3 9.24008 14.409 9.45399C14.5049 9.64215 14.6579 9.79513 14.8461 9.89101C15.06 10 15.34 10 15.9 10H19.7C20.2601 10 20.5401 10 20.754 9.89101C20.9422 9.79513 21.0952 9.64215 21.1911 9.45399C21.3 9.24008 21.3 8.96005 21.3 8.4V4.6C21.3 4.03995 21.3 3.75992 21.1911 3.54601C21.0952 3.35785 20.9422 3.20487 20.754 3.10899C20.5401 3 20.2601 3 19.7 3Z" stroke="#939393" stroke-width="2" stroke-linecap="round" stroke-linejoin="round"/>
<path d="M19.7 14H15.9C15.34 14 15.06 14 14.8461 14.109C14.6579 14.2049 14.5049 14.3578 14.409 14.546C14.3 14.7599 14.3 15.0399 14.3 15.6V19.4C14.3 19.9601 14.3 20.2401 14.409 20.454C14.5049 20.6422 14.6579 20.7951 14.8461 20.891C15.06 21 15.34 21 15.9 21H19.7C20.2601 21 20.5401 21 20.754 20.891C20.9422 20.7951 21.0952 20.6422 21.1911 20.454C21.3 20.2401 21.3 19.9601 21.3 19.4V15.6C21.3 15.0399 21.3 14.7599 21.1911 14.546C21.0952 14.3578 20.9422 14.2049 20.754 14.109C20.5401 14 20.2601 14 19.7 14Z" stroke="#939393" stroke-width="2" stroke-linecap="round" stroke-linejoin="round"/>
<path d="M8.70005 14H4.90005C4.34 14 4.05997 14 3.84606 14.109C3.6579 14.2049 3.50492 14.3578 3.40904 14.546C3.30005 14.7599 3.30005 15.0399 3.30005 15.6V19.4C3.30005 19.9601 3.30005 20.2401 3.40904 20.454C3.50492 20.6422 3.6579 20.7951 3.84606 20.891C4.05997 21 4.34 21 4.90005 21H8.70005C9.2601 21 9.54013 21 9.75404 20.891C9.9422 20.7951 10.0952 20.6422 10.1911 20.454C10.3 20.2401 10.3 19.9601 10.3 19.4V15.6C10.3 15.0399 10.3 14.7599 10.1911 14.546C10.0952 14.3578 9.9422 14.2049 9.75404 14.109C9.54013 14 9.2601 14 8.70005 14Z" stroke="#939393" stroke-width="2" stroke-linecap="round" stroke-linejoin="round"/>
</svg>
