<svg width="20" height="21" viewBox="0 0 20 21" fill="none" xmlns="http://www.w3.org/2000/svg">
<path d="M2.01677 10.7917C1.90328 10.612 1.84654 10.5221 1.81477 10.3835C1.79091 10.2794 1.79091 10.1153 1.81477 10.0112C1.84654 9.87258 1.90328 9.78273 2.01677 9.60303C2.95461 8.11805 5.74617 4.36401 10.0003 4.36401C14.2545 4.36401 17.0461 8.11805 17.9839 9.60303C18.0974 9.78273 18.1541 9.87258 18.1859 10.0112C18.2098 10.1153 18.2098 10.2794 18.1859 10.3835C18.1541 10.5221 18.0974 10.612 17.9839 10.7917C17.0461 12.2766 14.2545 16.0307 10.0003 16.0307C5.74617 16.0307 2.95461 12.2766 2.01677 10.7917Z" stroke="white" stroke-width="2" stroke-linecap="round" stroke-linejoin="round"/>
<path d="M10.0003 12.6973C11.381 12.6973 12.5003 11.5781 12.5003 10.1973C12.5003 8.81664 11.381 7.69735 10.0003 7.69735C8.61962 7.69735 7.50034 8.81664 7.50034 10.1973C7.50034 11.5781 8.61962 12.6973 10.0003 12.6973Z" stroke="white" stroke-width="2" stroke-linecap="round" stroke-linejoin="round"/>
</svg>
