<svg width="233" height="200" viewBox="0 0 233 200" fill="none" xmlns="http://www.w3.org/2000/svg">
<circle cx="115" cy="100" r="85" fill="#767680" fill-opacity="0.12"/>
<rect x="65" width="100" height="200" rx="12" fill="#411464"/>
<path fill-rule="evenodd" clip-rule="evenodd" d="M77 3H153C157.971 3 162 7.02944 162 12V188C162 192.971 157.971 197 153 197H77C72.0294 197 68 192.971 68 188V12C68 7.02944 72.0294 3 77 3ZM65 12C65 5.37258 70.3726 0 77 0H153C159.627 0 165 5.37258 165 12V188C165 194.627 159.627 200 153 200H77C70.3726 200 65 194.627 65 188V12ZM104 6C101.791 6 100 7.79086 100 10C100 12.2091 101.791 14 104 14H126C128.209 14 130 12.2091 130 10C130 7.79086 128.209 6 126 6H104Z" fill="#A77ACA"/>
<path d="M122.159 81.5466C121.574 81.3741 120.974 80.6766 120.847 80.0091C120.764 79.5741 120.862 79.2741 121.484 78.0666C124.004 73.1916 125.099 68.7066 125.099 63.2691C125.099 58.0116 124.132 53.9166 121.724 49.0116C121.207 47.9616 120.787 46.9791 120.787 46.8366C120.787 46.3116 121.222 45.5541 121.694 45.2616C122.339 44.8566 123.427 44.9316 123.952 45.4191C124.154 45.6066 124.672 46.4616 125.107 47.3166C126.832 50.6991 128.009 54.4116 128.594 58.2741C128.954 60.6666 129.029 65.1966 128.737 67.3866C128.204 71.4216 127.139 75.0291 125.429 78.5541C124.394 80.6841 123.749 81.5616 123.209 81.5616C123.104 81.5616 122.924 81.5916 122.819 81.6216C122.714 81.6516 122.414 81.6216 122.159 81.5466ZM115.147 77.8791C114.247 77.6166 113.594 76.5066 113.857 75.6816C113.917 75.4791 114.344 74.5566 114.802 73.6266C116.729 69.6891 117.532 65.4741 117.142 61.3341C116.819 57.9291 116.212 55.7841 114.674 52.6491C113.647 50.5416 113.594 50.2191 114.194 49.3641C114.764 48.5541 116.189 48.4266 116.932 49.1091C117.449 49.5816 119.062 52.9491 119.684 54.8541C121.739 61.1541 121.424 67.9266 118.792 74.1141C117.434 77.2866 116.482 78.2691 115.147 77.8791ZM107.917 74.1591C107.362 73.9116 106.882 73.3191 106.747 72.7266C106.664 72.3666 106.807 71.9616 107.467 70.6266C109.897 65.7066 109.919 60.9741 107.549 56.1666C106.507 54.0591 106.484 53.6391 107.362 52.8066C107.797 52.3941 107.984 52.3266 108.592 52.3266C109.619 52.3266 110.152 52.8441 111.067 54.7266C112.477 57.6216 113.054 60.1341 113.047 63.3516C113.039 66.6591 112.499 68.9316 110.999 71.9841C110.137 73.7316 109.709 74.1966 108.847 74.3091C108.584 74.3316 108.164 74.2716 107.917 74.1591ZM101.167 70.6941C100.724 70.5141 100.222 69.9141 100.072 69.3891C99.907 68.8041 100.042 68.3391 100.702 67.2516C101.557 65.8491 101.752 65.0991 101.752 63.2691C101.752 61.4391 101.557 60.6816 100.702 59.2866C100.409 58.8141 100.124 58.2441 100.057 58.0191C99.7795 57.0966 100.552 55.9641 101.587 55.7691C102.464 55.6041 103.064 55.9941 103.874 57.2541C106.207 60.8991 106.207 65.7591 103.874 69.3741C103.049 70.6416 102.134 71.0916 101.167 70.6941Z" fill="#767680" fill-opacity="0.12"/>
<circle cx="41.5" cy="143.5" r="41.5" fill="#96E9C6"/>
<path d="M52.1321 141.134C51.9066 141.36 51.9066 141.726 52.1321 141.953C52.2449 142.066 52.3923 142.122 52.5412 142.122C52.6887 142.122 52.8376 142.066 52.9504 141.953C53.6559 141.247 54.8052 141.247 55.5107 141.953C55.7362 142.178 56.102 142.178 56.3289 141.953C56.5545 141.727 56.5545 141.36 56.3289 141.134C55.1724 139.978 53.2901 139.978 52.1335 141.134H52.1321Z" fill="white"/>
<path d="M54.2299 137.892C52.803 137.892 51.4628 138.447 50.4538 139.456C50.2283 139.681 50.2283 140.047 50.4538 140.274C50.5666 140.387 50.714 140.443 50.863 140.443C51.0104 140.443 51.1593 140.387 51.2721 140.274C52.0629 139.483 53.1139 139.048 54.23 139.048C55.3475 139.048 56.3985 139.483 57.1878 140.274C57.4134 140.5 57.7791 140.5 58.0061 140.274C58.2316 140.049 58.2316 139.683 58.0061 139.456C56.997 138.447 55.6567 137.892 54.2299 137.892Z" fill="white"/>
<path d="M49.5415 138.544C52.1264 135.959 56.3335 135.959 58.9197 138.544C59.0325 138.657 59.1799 138.713 59.3288 138.713C59.4763 138.713 59.6252 138.657 59.738 138.544C59.9635 138.318 59.9635 137.953 59.738 137.726C58.2677 136.255 56.3117 135.444 54.2313 135.444C52.151 135.444 50.1951 136.254 48.7247 137.726C48.4992 137.951 48.4992 138.317 48.7247 138.544C48.9502 138.769 49.316 138.769 49.5429 138.544H49.5415Z" fill="white"/>
<path d="M54.8183 143.422C54.8183 143.102 54.5595 142.843 54.24 142.843H54.2343C53.9148 142.843 53.6589 143.102 53.6589 143.422C53.6589 143.741 53.9205 144 54.24 144C54.5595 144 54.8183 143.741 54.8183 143.422Z" fill="white"/>
<rect x="63.3333" y="130.778" width="26.4444" height="43.5555" rx="2.33333" transform="rotate(90 63.3333 130.778)" stroke="white" stroke-width="1.55556"/>
<rect x="22.8889" y="146.333" width="10.1111" height="1.55556" rx="0.777778" fill="white"/>
<rect x="22.8889" y="149.444" width="4.66667" height="1.55556" rx="0.777778" fill="white"/>
<rect x="29.1111" y="149.444" width="4.66667" height="1.55556" rx="0.777778" fill="white"/>
<rect x="35.3333" y="149.444" width="4.66667" height="1.55556" rx="0.777778" fill="white"/>
<rect x="41.5555" y="149.444" width="4.66667" height="1.55556" rx="0.777778" fill="white"/>
<circle cx="191.5" cy="58.5" r="41.5" fill="#F7B68E"/>
<g clip-path="url(#clip0_7979_234094)">
<path d="M207.973 73.2843H202.949V71.5961H207.971C208.899 71.5961 209.659 70.8361 209.659 69.9079L209.661 41.5447C209.661 40.6165 208.901 39.8565 207.973 39.8565H174.545C173.617 39.8565 172.857 40.6165 172.857 41.5447V69.9493C172.857 70.8774 173.617 71.6375 174.545 71.6375H179.566V73.3257H174.545C172.688 73.3257 171.211 71.8485 171.211 69.9921V41.545C171.211 39.6886 172.688 38.2114 174.545 38.2114H207.971C209.827 38.2114 211.304 39.6886 211.304 41.545V69.9495C211.306 71.8075 209.829 73.2843 207.973 73.2843ZM206.284 59.1025H176.233C175.768 59.1025 175.389 58.7233 175.389 58.2584V43.2325C175.389 42.7676 175.768 42.3884 176.233 42.3884H206.283C206.748 42.3884 207.127 42.7676 207.127 43.2325L207.128 58.2584C207.128 58.7233 206.748 59.1025 206.284 59.1025ZM177.077 57.4143H205.482V44.0766H177.077V57.4143ZM180.412 54.0808H182.101V55.769H180.412V54.0808ZM180.412 49.9015H182.101V51.5897H180.412V49.9015ZM180.412 45.7238H182.101V47.412H180.412V45.7238ZM185.393 54.0809H197.083V55.7691H185.393V54.0809ZM185.393 49.9016H197.083V51.5898H185.393V49.9016ZM185.393 45.724H197.083V47.4122H185.393V45.724ZM200.46 54.081H202.148V55.7692H200.46V54.081ZM200.46 49.9017H202.148V51.5899H200.46V49.9017ZM200.46 45.7241H202.148V47.4123H200.46V45.7241ZM183.746 64.1247H185.434V69.9904H183.746V64.1247ZM187.081 64.1247H188.769V74.9711H187.081V64.1247ZM197.927 65.2656C196.704 63.8725 194.594 63.7455 193.201 64.9705C191.85 66.1526 191.723 68.1787 192.821 69.57C192.357 70.1602 192.061 70.8362 192.061 71.6374C192.061 73.4937 193.539 74.9709 195.395 74.9709C197.251 74.9709 198.728 73.4937 198.728 71.6374C198.728 70.8362 198.433 70.1173 197.968 69.57C199.024 68.3038 199.024 66.4888 197.927 65.2656ZM195.436 65.7717C196.364 65.7717 197.124 66.5317 197.124 67.4599C197.124 67.8391 196.997 68.2611 196.745 68.5579C196.366 68.3898 195.901 68.304 195.479 68.304C195.014 68.304 194.592 68.3881 194.213 68.5579C193.959 68.2628 193.791 67.882 193.791 67.4599C193.748 66.5317 194.508 65.7717 195.436 65.7717ZM195.436 73.2847C194.508 73.2847 193.748 72.5246 193.748 71.5964C193.748 70.6683 194.508 69.9082 195.436 69.9082C196.364 69.9082 197.124 70.6683 197.124 71.5964C197.124 72.5659 196.366 73.2847 195.436 73.2847ZM204.637 61.5925H177.88V63.2807H180.369V75.8153C180.369 77.2084 181.509 78.3047 182.859 78.3047H199.573C200.966 78.3047 202.062 77.1655 202.062 75.8153L202.064 63.2807H204.554V61.5925H204.637ZM200.46 75.817C200.46 76.2819 200.08 76.6611 199.616 76.6611H182.901C182.436 76.6611 182.057 76.2819 182.057 75.817V63.2807H200.417V75.817H200.46Z" fill="white"/>
</g>
<defs>
<clipPath id="clip0_7979_234094">
<rect width="40.517" height="40.517" fill="white" transform="translate(171 38)"/>
</clipPath>
</defs>
</svg>
