<svg width="171" height="8" viewBox="0 0 171 8" fill="none" xmlns="http://www.w3.org/2000/svg">
<g filter="url(#filter0_i_13849_9417)">
<path d="M0 4C0 1.79086 1.79086 0 4 0H166.5C168.709 0 170.5 1.79086 170.5 4C170.5 6.20914 168.709 8 166.5 8H4C1.79086 8 0 6.20914 0 4Z" fill="#6C22A6" fill-opacity="0.1"/>
</g>
<path d="M4 0.5H166.5C168.433 0.5 170 2.067 170 4C170 5.933 168.433 7.5 166.5 7.5H4C2.067 7.5 0.5 5.933 0.5 4C0.5 2.067 2.067 0.5 4 0.5Z" stroke="#6C22A6" stroke-opacity="0.2"/>
<defs>
<filter id="filter0_i_13849_9417" x="0" y="0" width="170.5" height="9" filterUnits="userSpaceOnUse" color-interpolation-filters="sRGB">
<feFlood flood-opacity="0" result="BackgroundImageFix"/>
<feBlend mode="normal" in="SourceGraphic" in2="BackgroundImageFix" result="shape"/>
<feColorMatrix in="SourceAlpha" type="matrix" values="0 0 0 0 0 0 0 0 0 0 0 0 0 0 0 0 0 0 127 0" result="hardAlpha"/>
<feOffset dy="1"/>
<feGaussianBlur stdDeviation="2"/>
<feComposite in2="hardAlpha" operator="arithmetic" k2="-1" k3="1"/>
<feColorMatrix type="matrix" values="0 0 0 0 0 0 0 0 0 0 0 0 0 0 0 0 0 0 0.08 0"/>
<feBlend mode="normal" in2="shape" result="effect1_innerShadow_13849_9417"/>
</filter>
</defs>
</svg>
