<svg width="25" height="24" viewBox="0 0 25 24" fill="none" xmlns="http://www.w3.org/2000/svg">
<path d="M6.2162 19.4384C6.82452 18.0052 8.24482 17 9.8999 17H15.8999C17.555 17 18.9753 18.0052 19.5836 19.4384M16.8999 9.5C16.8999 11.7091 15.109 13.5 12.8999 13.5C10.6908 13.5 8.8999 11.7091 8.8999 9.5C8.8999 7.29086 10.6908 5.5 12.8999 5.5C15.109 5.5 16.8999 7.29086 16.8999 9.5ZM22.8999 12C22.8999 17.5228 18.4228 22 12.8999 22C7.37705 22 2.8999 17.5228 2.8999 12C2.8999 6.47715 7.37705 2 12.8999 2C18.4228 2 22.8999 6.47715 22.8999 12Z" stroke="#939393" stroke-width="2" stroke-linecap="round" stroke-linejoin="round"/>
</svg>
