<svg width="25" height="24" viewBox="0 0 25 24" fill="none" xmlns="http://www.w3.org/2000/svg">
<path d="M6.21631 19.4384C6.82464 18.0052 8.24494 17 9.90002 17H15.9C17.5551 17 18.9754 18.0052 19.5837 19.4384M16.9 9.5C16.9 11.7091 15.1092 13.5 12.9 13.5C10.6909 13.5 8.90002 11.7091 8.90002 9.5C8.90002 7.29086 10.6909 5.5 12.9 5.5C15.1092 5.5 16.9 7.29086 16.9 9.5ZM22.9 12C22.9 17.5228 18.4229 22 12.9 22C7.37717 22 2.90002 17.5228 2.90002 12C2.90002 6.47715 7.37717 2 12.9 2C18.4229 2 22.9 6.47715 22.9 12Z" stroke="#6C22A6" stroke-width="2" stroke-linecap="round" stroke-linejoin="round"/>
</svg>
